<svg width="243" height="91" viewBox="0 0 243 91" fill="none" xmlns="http://www.w3.org/2000/svg">
<g clip-path="url(#clip0)">
<path d="M60.4738 52.7746C57.104 56.2426 55.4191 60.3114 55.4191 64.9809C55.4191 69.6504 57.1392 73.6384 60.5793 76.9448C64.0174 80.247 67.9996 81.8992 72.5258 81.9012C77.052 81.9033 80.9069 80.6323 84.0906 78.0883C84.4927 77.787 84.9515 77.5703 85.4395 77.4512C85.9274 77.3322 86.4343 77.3131 86.9298 77.3954C87.9857 77.5055 88.9557 78.028 89.6294 78.8497C89.9442 79.2667 90.1736 79.7419 90.3046 80.248C90.4356 80.754 90.4655 81.281 90.3927 81.7987C90.3397 82.3086 90.1832 82.8023 89.933 83.2495C89.6828 83.6968 89.344 84.0881 88.9374 84.3997C84.3202 88.0044 78.9872 89.8067 72.9385 89.8067C66.0147 89.8067 60.0591 87.3673 55.0716 82.4885C50.0841 77.6098 47.5686 71.7262 47.5251 64.8379C47.5686 58.0015 50.0841 52.1407 55.0716 47.2557C60.0591 42.3707 66.0147 39.9086 72.9385 39.8692C78.9872 39.8692 84.3202 41.6726 88.9374 45.2794C89.7471 45.9341 90.2693 46.8797 90.3927 47.9145C90.5199 48.963 90.2268 50.0192 89.5777 50.8516C88.9285 51.6839 87.9763 52.2246 86.9298 52.3551C86.429 52.4355 85.9169 52.4084 85.4274 52.2755C84.9379 52.1427 84.4822 51.9071 84.0906 51.5845C80.9876 49.0425 77.1668 47.7716 72.6282 47.7716C68.0896 47.7716 64.0381 49.4393 60.4738 52.7746Z" fill="#9AE0B3"/>
<path d="M131.457 75.0368C131.457 71.5149 127.395 68.9948 119.269 67.4762H119.132C115.907 66.9009 112.766 65.9227 109.783 64.5645C107.152 63.3215 105.224 61.7149 103.999 59.7448C102.824 57.9374 102.188 55.8322 102.165 53.6758C102.165 49.6526 103.931 46.3463 107.462 43.7567C110.993 41.1671 115.068 39.8723 119.685 39.8723C121.805 39.8874 123.909 40.2387 125.919 40.9133C127.559 41.4057 129.148 42.0561 130.663 42.8555C131.697 43.4584 133.071 44.314 134.784 45.4223C135.559 45.9612 136.093 46.7818 136.273 47.7094C136.379 48.1646 136.39 48.6365 136.306 49.0962C136.222 49.5559 136.045 49.9934 135.786 50.3819C135.533 50.7751 135.204 51.113 134.817 51.3752C134.43 51.6374 133.995 51.8185 133.536 51.9077C133.075 52.0142 132.596 52.0228 132.131 51.9329C131.666 51.843 131.225 51.6565 130.837 51.3856C129.012 50.1043 127.075 48.9904 125.05 48.0575C123.357 47.3164 121.529 46.9385 119.682 46.9481C116.635 46.9481 114.142 47.6649 112.204 49.0985C110.265 50.5321 109.295 52.0579 109.293 53.6758C109.272 54.3863 109.464 55.0868 109.845 55.6864C111.136 57.816 114.622 59.4112 120.302 60.4719H120.442C124.325 61.2592 127.516 62.2328 130.015 63.393C135.736 66.2146 138.598 70.099 138.6 75.0461C138.6 79.3469 136.708 82.8687 132.922 85.6116C129.136 88.3545 124.774 89.7301 119.834 89.7383C113.785 89.6948 107.875 87.3829 102.103 82.8024C101.737 82.5057 101.435 82.1376 101.215 81.7204C100.995 81.3032 100.863 80.8456 100.825 80.3755C100.756 79.9098 100.785 79.4349 100.91 78.9812C101.035 78.5274 101.254 78.1048 101.551 77.7403C101.848 77.3745 102.216 77.0723 102.632 76.8518C103.049 76.6313 103.505 76.497 103.974 76.4569C104.445 76.3908 104.924 76.4279 105.378 76.5658C105.832 76.7038 106.251 76.9391 106.606 77.2555C111.041 80.8582 115.447 82.6387 119.824 82.5973C123.287 82.5973 126.092 81.7997 128.24 80.2045C130.387 78.6094 131.46 76.8868 131.457 75.0368Z" fill="#9AE0B3"/>
<path d="M171.905 72.2618H171.756C171.109 72.2855 170.466 72.1531 169.881 71.8756C169.296 71.5981 168.787 71.1838 168.395 70.6676L157.941 56.7957V86.0062C157.948 86.518 157.843 87.025 157.635 87.4923C157.426 87.9596 157.119 88.3761 156.734 88.7129C155.953 89.4439 154.918 89.8418 153.849 89.8222C153.324 89.8344 152.802 89.7427 152.312 89.5523C151.823 89.3619 151.376 89.0767 150.997 88.7129C150.622 88.3704 150.323 87.952 150.122 87.4854C149.92 87.0188 149.819 86.5146 149.827 86.0062V45.0743C149.82 44.5664 149.92 44.0627 150.122 43.5966C150.324 43.1305 150.622 42.7127 150.997 42.3707C151.376 42.0069 151.823 41.7216 152.312 41.5313C152.802 41.3409 153.324 41.2492 153.849 41.2614H154.066C155.479 41.2614 156.551 41.7927 157.284 42.8555L171.827 61.9977L186.371 42.8555C186.751 42.3451 187.249 41.9339 187.821 41.6564C188.394 41.379 189.024 41.2435 189.66 41.2614H189.734C190.808 41.2883 191.834 41.7071 192.62 42.4391C192.999 42.765 193.304 43.1693 193.512 43.6242C193.721 44.0791 193.828 44.5738 193.827 45.0743V85.9938C193.826 86.499 193.718 86.9982 193.51 87.4584C193.302 87.9186 192.999 88.3293 192.62 88.6631C192.239 89.0357 191.787 89.3288 191.292 89.5256C190.797 89.7224 190.267 89.819 189.734 89.8098C189.21 89.822 188.687 89.7303 188.198 89.5399C187.709 89.3495 187.262 89.0642 186.883 88.7004C186.507 88.358 186.209 87.9396 186.007 87.473C185.806 87.0064 185.705 86.5022 185.713 85.9938V56.7833L175.191 70.6552C174.811 71.1668 174.315 71.5798 173.743 71.8594C173.171 72.1389 172.541 72.2769 171.905 72.2618Z" fill="#9AE0B3"/>
<path d="M29.8227 35.9351L4.03387 61.7615L29.1959 86.9602" stroke="#9AE0B3" stroke-width="7.8" stroke-linecap="round" stroke-linejoin="round"/>
<path d="M213.174 35.9351L238.966 61.7615L213.804 86.9602" stroke="#9AE0B3" stroke-width="7.8" stroke-linecap="round" stroke-linejoin="round"/>
<path d="M120.836 14.6052V28.2782" stroke="#9AE0B3" stroke-width="7" stroke-miterlimit="10" stroke-linecap="round"/>
<path d="M110.559 8.39023C110.138 8.38962 109.726 8.51412 109.375 8.74798C109.025 8.98185 108.752 9.31457 108.59 9.70404C108.429 10.0935 108.386 10.5222 108.468 10.9359C108.549 11.3497 108.752 11.7298 109.05 12.0282C109.347 12.3267 109.726 12.53 110.139 12.6125C110.552 12.695 110.981 12.653 111.37 12.4917C111.759 12.3305 112.091 12.0573 112.325 11.7066C112.56 11.356 112.684 10.9437 112.684 10.522C112.684 9.95739 112.46 9.41612 112.061 9.01661C111.663 8.61709 111.123 8.39187 110.559 8.39023Z" fill="#9AE0B3"/>
<path d="M114.729 3.20694C112.226 1.47496 109.327 0.403475 106.3 0.0916839C103.274 -0.220107 100.218 0.237877 97.4147 1.42323C96.7538 7.13171 99.2207 13.008 104.421 16.65C106.924 18.382 109.824 19.4534 112.85 19.7652C115.877 20.077 118.933 19.619 121.736 18.4337C122.397 12.7221 119.93 6.8365 114.729 3.20694ZM110.559 14.2075C109.831 14.2081 109.119 13.9925 108.514 13.5879C107.908 13.1833 107.436 12.6079 107.157 11.9345C106.878 11.2611 106.804 10.52 106.946 9.80489C107.088 9.08977 107.438 8.43279 107.952 7.91705C108.467 7.40132 109.123 7.05 109.837 6.90754C110.551 6.76508 111.291 6.83789 111.963 7.11674C112.636 7.3956 113.211 7.86797 113.616 8.47412C114.02 9.08026 114.236 9.79294 114.236 10.522C114.235 11.4987 113.848 12.4351 113.158 13.126C112.469 13.8169 111.534 14.2058 110.559 14.2075Z" fill="#9AE0B3"/>
<path d="M143.978 1.42323C141.175 0.237877 138.119 -0.220107 135.092 0.0916839C132.066 0.403475 129.167 1.47496 126.663 3.20694C121.46 6.84271 118.996 12.7221 119.657 18.4337C122.46 19.619 125.516 20.077 128.543 19.7652C131.569 19.4534 134.468 18.382 136.971 16.65C142.184 13.008 144.651 7.14725 143.978 1.42323ZM132.007 13.673C132.007 13.9202 131.909 14.1574 131.734 14.3322C131.559 14.507 131.323 14.6052 131.076 14.6052C130.829 14.6052 130.592 14.507 130.418 14.3322C130.243 14.1574 130.145 13.9202 130.145 13.673V9.01175H129.835C129.588 9.01175 129.351 8.91353 129.176 8.7387C129.002 8.56387 128.904 8.32674 128.904 8.0795C128.904 7.83225 129.002 7.59513 129.176 7.4203C129.351 7.24547 129.588 7.14725 129.835 7.14725H131.076C131.323 7.14725 131.559 7.24547 131.734 7.4203C131.909 7.59513 132.007 7.83225 132.007 8.0795V13.673Z" fill="#9AE0B3"/>
</g>
<defs>
<clipPath id="clip0">
<rect width="243" height="91" fill="white"/>
</clipPath>
</defs>
</svg>
